<svg id="Layer_1" data-name="Layer 1" xmlns="http://www.w3.org/2000/svg" viewBox="0 0 392.17 392.15"><defs><style>.cls-1{font-size:44px;stroke:#000;stroke-miterlimit:10;font-family:NOIRetBLANCMedBoldItalic, NOIR et BLANC Med Bold Italic;}.cls-2{font-size:250px;font-family:Helvetica-Light, Helvetica;font-weight:300;}</style></defs><text class="cls-1" transform="translate(108.94 67.07) rotate(-28.83)">T</text><text class="cls-1" transform="translate(133.95 53.2) rotate(-17.89)">K</text><text class="cls-1" transform="translate(159.02 44.67) rotate(-7.77)">C</text><text class="cls-1" transform="translate(191.24 40.97) rotate(0.93)"> </text><text class="cls-1" transform="translate(203.42 40.79) rotate(6.97)">2</text><text class="cls-1" transform="matrix(0.95, 0.33, -0.33, 0.95, 226.89, 42.67)">0</text><text class="cls-1" transform="translate(265.99 57.18) rotate(31.11)">2</text><text class="cls-1" transform="translate(286.35 69.87) rotate(38.03)">1</text><text class="cls-1" transform="matrix(0.73, 0.68, -0.68, 0.73, 297.2, 78.43)"> </text><text class="cls-1" transform="matrix(0.66, 0.75, -0.75, 0.66, 306.29, 86.73)">•</text><text class="cls-1" transform="matrix(0.59, 0.81, -0.81, 0.59, 317.87, 99.98)"> </text><text class="cls-1" transform="matrix(0.48, 0.88, -0.88, 0.48, 325.45, 109.45)">T</text><text class="cls-1" transform="translate(339.22 134.53) rotate(72.36)">K</text><text class="cls-1" transform="translate(347.65 159.64) rotate(82.47)">C</text><text class="cls-1" transform="matrix(-0.02, 1, -1, -0.02, 351.18, 191.75)"> </text><text class="cls-1" transform="matrix(-0.13, 0.99, -0.99, -0.13, 351.34, 204.04)">2</text><text class="cls-1" transform="translate(349.35 227.5) rotate(109.29)">0</text><text class="cls-1" transform="matrix(-0.52, 0.85, -0.85, -0.52, 334.67, 266.56)">2</text><text class="cls-1" transform="matrix(-0.62, 0.79, -0.79, -0.62, 321.91, 286.84)">1</text><text class="cls-1" transform="translate(313.31 297.65) rotate(133.09)"> </text><text class="cls-1" transform="translate(304.95 306.73) rotate(138.59)">•</text><text class="cls-1" transform="translate(291.65 318.25) rotate(144.09)"> </text><text class="cls-1" transform="translate(282.15 325.79) rotate(151.66)">T</text><text class="cls-1" transform="matrix(-0.95, 0.3, -0.3, -0.95, 257.02, 339.45)">K</text><text class="cls-1" transform="translate(231.89 347.77) rotate(172.71)">C</text><text class="cls-1" transform="matrix(-1, -0.02, 0.02, -1, 199.72, 351.14)"> </text><text class="cls-1" transform="translate(187.48 351.27) rotate(-172.55)">2</text><text class="cls-1" transform="translate(164.01 349.19) rotate(-160.46)">0</text><text class="cls-1" transform="translate(125.02 334.35) rotate(-148.4)">2</text><text class="cls-1" transform="matrix(-0.78, -0.62, 0.62, -0.78, 104.8, 321.51)">1</text><text class="cls-1" transform="translate(94.02 312.86) rotate(-136.68)"> </text><text class="cls-1" transform="matrix(-0.66, -0.75, 0.75, -0.66, 84.98, 304.46)">•</text><text class="cls-1" transform="translate(73.51 291.11) rotate(-125.68)"> </text><text class="cls-1" transform="matrix(-0.47, -0.88, 0.88, -0.47, 66.01, 281.58)">T</text><text class="cls-1" transform="translate(52.46 256.39) rotate(-107.16)">K</text><text class="cls-1" transform="translate(44.25 231.23) rotate(-97.05)">C</text><text class="cls-1" transform="matrix(0.02, -1, 1, 0.02, 41.01, 199.04)"> </text><text class="cls-1" transform="matrix(0.13, -0.99, 0.99, 0.13, 40.92, 186.78)">2</text><text class="cls-1" transform="translate(43.1 163.33) rotate(-70.22)">0</text><text class="cls-1" transform="matrix(0.53, -0.85, 0.85, 0.53, 58.1, 124.42)">2</text><text class="cls-1" transform="matrix(0.63, -0.78, 0.78, 0.63, 71.04, 104.23)">1</text><text class="cls-1" transform="matrix(0.69, -0.72, 0.72, 0.69, 79.74, 93.49)"> </text><text class="cls-1" transform="translate(88.15 84.5) rotate(-40.94)">•</text><text class="cls-1" transform="matrix(0.81, -0.58, 0.58, 0.81, 101.55, 73.09)"> </text><text class="cls-2" transform="translate(102.52 288.38)">C</text></svg>