<svg id="Layer_1" data-name="Layer 1" xmlns="http://www.w3.org/2000/svg" viewBox="0 0 378.1 399"><defs><style>.cls-1{fill:#d9e74a;}.cls-2{fill:#ee7c44;}.cls-3{fill:#e4c948;}.cls-4{fill:#e8ca8c;}.cls-5{fill:#edd5e1;}.cls-6{fill:#a2c6eb;}.cls-7{fill:#8ebaa8;}</style></defs><polygon class="cls-1" points="101.33 212 33.77 212 0 270.5 33.77 329 101.33 329 135.1 270.5 101.33 212"/><polygon class="cls-2" points="344.32 71 276.77 71 243 129.5 276.77 188 344.32 188 378.1 129.5 344.32 71"/><polygon class="cls-3" points="223.32 0 155.78 0 122 58.5 155.78 117 223.32 117 257.1 58.5 223.32 0"/><polygon class="cls-4" points="344.32 212 276.77 212 243 270.5 276.77 329 344.32 329 378.1 270.5 344.32 212"/><polygon class="cls-5" points="103.33 71 35.77 71 2 129.5 35.77 188 103.33 188 137.1 129.5 103.33 71"/><polygon class="cls-6" points="223.32 282 155.78 282 122 340.5 155.78 399 223.32 399 257.1 340.5 223.32 282"/><polygon class="cls-7" points="223.32 141 155.78 141 122 199.5 155.78 258 223.32 258 257.1 199.5 223.32 141"/></svg>